<?xml version="1.0" encoding="utf-8"?>
<!-- Generator: Adobe Illustrator 25.0.1, SVG Export Plug-In . SVG Version: 6.00 Build 0)  -->
<svg version="1.1" id="Layer_1" xmlns="http://www.w3.org/2000/svg" xmlns:xlink="http://www.w3.org/1999/xlink" x="0px" y="0px"
	 viewBox="0 0 241.4 45.5" style="enable-background:new 0 0 241.4 45.5;" xml:space="preserve">
<g>
	<rect x="91.9" y="11.6" width="5.9" height="22.2"/>
	<rect x="192" y="11.6" width="5.9" height="22.2"/>
	<path d="M241.4,11.6h-7.2l-7.9,7.2V0h-5.9v16.3c-1-1.4-2.2-2.6-3.7-3.5c-1.8-1-3.6-1.5-5.7-1.5c-1.6,0-3.1,0.3-4.5,0.9
		c-1.4,0.6-2.6,1.4-3.6,2.5c-1,1-1.9,2.2-2.4,3.6c-0.6,1.4-0.9,2.9-0.9,4.4c0,1.6,0.3,3,0.9,4.4c0.6,1.4,1.4,2.6,2.4,3.6
		c1,1,2.2,1.8,3.6,2.4c1.4,0.6,2.9,0.9,4.5,0.9c2,0,3.9-0.5,5.7-1.5c1.5-0.9,2.7-2,3.7-3.5v4.7h2.3h3.6v-7.6l7.9,7.6l7.1,0
		l-11.8-11.3L241.4,11.6z M216.2,25.3L216.2,25.3L216.2,25.3c-0.5,1.1-1.2,2-2.1,2.6c-0.9,0.6-1.9,0.9-3,0.9c-0.8,0-1.5-0.2-2.2-0.5
		s-1.3-0.7-1.8-1.3s-0.9-1.2-1.2-1.9c-0.3-0.7-0.4-1.5-0.4-2.4s0.1-1.7,0.4-2.4c0.3-0.8,0.7-1.4,1.2-2c0.5-0.6,1.1-1,1.8-1.4
		c0.7-0.3,1.4-0.5,2.2-0.5c1.1,0,2.1,0.3,3,1s1.6,1.6,2.1,2.7l0,0l4.3-2.8v10.7L216.2,25.3z"/>
	<path d="M90,11.6h-22v5.3h12.7L67.5,28.1l0-5.9c-0.2-4.1-2.4-7.6-5.7-9.5v0c0,0-0.1,0-0.1,0c-0.2-0.1-0.4-0.2-0.6-0.3
		c0,0-0.1,0-0.1,0c-0.3-0.2-0.7-0.3-1.1-0.5c-0.1,0-0.2-0.1-0.4-0.1c-0.2,0-0.3-0.1-0.5-0.2c-0.2-0.1-0.5-0.1-0.7-0.2
		c-0.1,0-0.2,0-0.3-0.1c-0.2,0-0.5-0.1-0.8-0.1c-0.1,0-0.2,0-0.3,0c-0.3,0-0.7,0-1,0s-0.7,0-1,0c-0.1,0-0.2,0-0.3,0
		c-0.3,0-0.5,0.1-0.8,0.1c-0.1,0-0.2,0-0.3,0.1c-0.2,0-0.5,0.1-0.7,0.2c-0.2,0-0.3,0.1-0.5,0.2c-0.1,0-0.2,0.1-0.4,0.1
		c-0.4,0.1-0.7,0.3-1.1,0.5c0,0-0.1,0-0.1,0c-0.2,0.1-0.4,0.2-0.6,0.3c0,0-0.1,0-0.1,0l0-1h-5.7v7.6c-0.1-0.3-0.2-0.6-0.3-0.8
		c-0.6-1.4-1.4-2.6-2.5-3.6c-1-1-2.2-1.8-3.6-2.5c-1.4-0.6-2.9-0.9-4.4-0.9c-1.6,0-3.1,0.3-4.5,0.9c-1.4,0.6-2.6,1.4-3.6,2.5
		c-1,1-1.8,2.2-2.5,3.6c-0.1,0.3-0.2,0.6-0.3,0.9V0h-5.8v12.2v9.1v2.2c-0.5,2.5-2.7,4.3-5.3,4.3c-3,0-5.4-2.4-5.4-5.4
		S8.5,17,11.5,17c1.4,0,2.7,0.6,3.7,1.5v-7c-1.2-0.4-2.4-0.6-3.7-0.6C5.2,10.9,0,16.1,0,22.5S5.2,34,11.5,34c1.9,0,3.7-0.5,5.3-1.3
		v1.1h5.8v-7.5c0.1,0.3,0.2,0.6,0.3,0.9c0.6,1.4,1.4,2.6,2.5,3.6c1,1,2.2,1.8,3.6,2.4c1.4,0.6,2.9,0.9,4.5,0.9c1.6,0,3-0.3,4.4-0.9
		c1.4-0.6,2.6-1.4,3.6-2.4s1.8-2.2,2.5-3.6c0,0,0-0.1,0-0.1h-6.5c-0.2,0.2-0.4,0.4-0.7,0.7c-1,0.8-2.1,1.2-3.4,1.2
		c-0.9,0-1.7-0.2-2.4-0.6c-0.7-0.4-1.3-0.9-1.8-1.5c-0.5-0.6-0.9-1.2-1.2-2s-0.4-1.4-0.4-2.1c0-0.9,0.2-1.7,0.4-2.4
		c0.3-0.8,0.7-1.4,1.2-1.9c0.5-0.5,1.1-1,1.8-1.3c0.7-0.3,1.5-0.5,2.2-0.5c1.3,0,2.4,0.4,3.4,1.2c1,0.8,1.6,1.7,2,2.9h-9.4v4.5h14.8
		v8.6h6.3h0.1V21.1c0-0.2,0.1-0.4,0.2-0.6c0-0.1,0.1-0.2,0.1-0.3c0-0.1,0.1-0.2,0.2-0.3c0.1-0.1,0.2-0.3,0.2-0.4
		c0.1-0.1,0.1-0.2,0.2-0.3c0.1-0.1,0.2-0.2,0.3-0.3c0.1-0.1,0.2-0.2,0.2-0.2c0.1-0.1,0.2-0.2,0.3-0.3c0.1-0.1,0.2-0.2,0.3-0.2
		c0.1-0.1,0.3-0.2,0.4-0.2c0.1-0.1,0.2-0.1,0.3-0.2c0.1-0.1,0.3-0.1,0.5-0.2c0.1,0,0.2-0.1,0.3-0.1c0.2-0.1,0.3-0.1,0.5-0.1
		c0.1,0,0.2,0,0.3-0.1c0.3,0,0.6-0.1,0.8-0.1c0.2,0,0.4,0,0.6,0c0.1,0,0.2,0,0.3,0c0.2,0,0.3,0.1,0.5,0.1c0.1,0,0.2,0,0.2,0.1
		c1.5,0.5,2.6,1.5,3.3,2.9c0.2,0.6,0.3,1.3,0.3,2v11.5h6.2h0.1h21.9V29H75.9L90,16.9L90,11.6z"/>
	<path d="M185.1,10.9c-2,0-3.9,0.5-5.5,1.4v-0.8h-6v13H169c0.1,0.2,0.1,0.4,0.1,0.7c0,1.6-1.3,2.9-2.9,2.9c-1.4,0-2.5-0.9-2.8-2.2
		c0-0.2-0.1-0.3-0.1-0.5v-8h6.8v-5.8h-6.8V0h-5.8v11.6h-1.8l0,0h-5.8v0.5v9.2v2.2c-0.5,2.5-2.7,4.3-5.3,4.3c-3,0-5.4-2.4-5.4-5.4
		c0-3,2.4-5.4,5.4-5.4c1.4,0,2.7,0.6,3.7,1.5v-7c-1.2-0.4-2.4-0.6-3.7-0.6c-5.6,0-10.3,4-11.3,9.3c-1.1-5.2-5.7-9.1-11.3-9.1
		c-1.3,0-2.6,0.2-3.7,0.6v7c1-0.9,2.3-1.5,3.7-1.5c3,0,5.4,2.4,5.4,5.4S125,28,122,28c-2.6,0-4.8-1.9-5.3-4.3v-12h-5.8v14
		c-0.1,1.5-1.4,2.6-2.8,2.6c-0.8,0-1.7-0.4-2.2-1.1c-0.6-0.7-0.7-1.5-0.7-2.4c0-0.8,0-24.7,0-24.7h-5.8v25.1c0,0.1,0,0.2,0,0.2
		c0,4.8,3.9,8.7,8.7,8.7c1,0,1.9-0.2,2.8-0.5v0.3v11.6h5.8V33.2v-0.4c1.6,0.8,3.4,1.3,5.3,1.3c5.6,0,10.3-4,11.3-9.3
		c1.1,5.2,5.8,9.1,11.3,9.1c1.9,0,3.7-0.5,5.3-1.3v1.2h5.8V17.5h1.8v7.6c0,0.1,0,0.2,0,0.2c0,4.8,3.9,8.7,8.7,8.7
		c3.1,0,5.8-1.6,7.3-4v3.8h6V22.6c0-3,2.5-5.5,5.5-5.5c1.2,0,2.4,0.4,3.3,1.2l3-5.4C189.6,11.6,187.4,10.9,185.1,10.9z"/>
</g>
</svg>
